<svg width="512" height="512" viewBox="0 0 512 512" fill="none" xmlns="http://www.w3.org/2000/svg" role="img" aria-label="SilverChimp logo">
  <rect width="512" height="512" rx="112" fill="#0B0C0E"/>
  <defs>
    <linearGradient id="silverFur" x1="64" y1="96" x2="448" y2="448" gradientUnits="userSpaceOnUse">
      <stop stop-color="#E6E8EC"/>
      <stop offset="0.5" stop-color="#B8BFCA"/>
      <stop offset="1" stop-color="#7A828F"/>
    </linearGradient>
    <linearGradient id="silverBack" x1="120" y1="200" x2="392" y2="360" gradientUnits="userSpaceOnUse">
      <stop stop-color="#D7DBE1"/>
      <stop offset="1" stop-color="#8A929E"/>
    </linearGradient>
    <linearGradient id="laptopBody" x1="156" y1="336" x2="356" y2="412" gradientUnits="userSpaceOnUse">
      <stop stop-color="#3A3F47"/>
      <stop offset="1" stop-color="#1B1E23"/>
    </linearGradient>
    <linearGradient id="screenGlow" x1="214" y1="252" x2="298" y2="320" gradientUnits="userSpaceOnUse">
      <stop stop-color="#7A5AF8"/>
      <stop offset="1" stop-color="#A78BFA"/>
    </linearGradient>
  </defs>

  <!-- Silverback body / back hump -->
  <path d="M150 232c-26 30-40 78-30 124 8 38 38 64 78 72 38 8 86-2 116-32 28-28 36-66 26-104-10-40-44-70-86-78-44-8-90 0-104 18z" fill="url(#silverBack)"/>

  <!-- Head -->
  <ellipse cx="256" cy="180" rx="86" ry="78" fill="url(#silverFur)"/>

  <!-- Ears -->
  <circle cx="178" cy="142" r="26" fill="#9AA1AC"/>
  <circle cx="334" cy="142" r="26" fill="#9AA1AC"/>
  <circle cx="178" cy="142" r="12" fill="#5C6470"/>
  <circle cx="334" cy="142" r="12" fill="#5C6470"/>

  <!-- Face / muzzle -->
  <ellipse cx="256" cy="208" rx="58" ry="46" fill="#3A2E26"/>
  <ellipse cx="256" cy="214" rx="46" ry="36" fill="#5A4636"/>

  <!-- Silver back streak over head -->
  <path d="M214 96c14-10 64-10 78 2 8 8 6 18-4 22-22 8-58 6-74-4-10-6-10-14 0-20z" fill="#E6E8EC"/>

  <!-- Eyes closed/focused -->
  <path d="M214 186l20 6M298 186l-20 6" stroke="#0B0C0E" stroke-width="6" stroke-linecap="round"/>
  <path d="M226 188c4-4 12-3 14 1M286 188c-4-4-12-3-14 1" stroke="#E6E8EC" stroke-width="3"/>

  <!-- Brow ridge (silverback strong brow) -->
  <rect x="208" y="166" width="96" height="10" rx="5" fill="#B0B6BE" opacity="0.7"/>

  <!-- Nostrils -->
  <ellipse cx="246" cy="218" rx="4" ry="6" fill="#0B0C0E"/>
  <ellipse cx="266" cy="218" rx="4" ry="6" fill="#0B0C0E"/>

  <!-- Mouth focused -->
  <path d="M238 232c8 6 30 6 38 0" stroke="#0B0C0E" stroke-width="5" stroke-linecap="round"/>

  <!-- Arms holding laptop -->
  <path d="M150 312c-30 18-30 56-10 76 16 16 44 18 62 4l-6-40-46-40z" fill="url(#silverFur)"/>
  <path d="M362 312c30 18 30 56 10 76-16 16-44 18-62 4l6-40 46-40z" fill="url(#silverFur)"/>

  <!-- Laptop base -->
  <path d="M140 416c0-8 6-14 14-14h204c8 0 14 6 14 14v6l-232 14v-20z" fill="url(#laptopBody)"/>
  <rect x="156" y="330" width="200" height="92" rx="10" fill="url(#laptopBody)"/>

  <!-- Screen -->
  <rect x="168" y="342" width="176" height="68" rx="6" fill="#0B0C0E"/>
  <path d="M180 354h152v44H180z" fill="url(#screenGlow)"/>

  <!-- Bar chart on screen (lifts) -->
  <rect x="190" y="388" width="14" height="-10" fill="#F59E0B"/>
  <rect x="190" y="378" width="14" height="20" fill="#F59E0B"/>
  <rect x="216" y="368" width="14" height="30" fill="#3B82F6"/>
  <rect x="242" y="358" width="14" height="40" fill="#EF4444"/>
  <rect x="268" y="372" width="14" height="26" fill="#FFFFFF" opacity="0.85"/>
  <rect x="294" y="384" width="14" height="14" fill="#FFFFFF" opacity="0.6"/>
  <rect x="320" y="380" width="14" height="18" fill="#FFFFFF" opacity="0.7"/>

  <!-- Bite/keyboard hint -->
  <rect x="206" y="412" width="100" height="4" rx="2" fill="#5C6470"/>

  <!-- Foot hint -->
  <ellipse cx="220" cy="448" rx="26" ry="10" fill="#5C6470" opacity="0.5"/>
  <ellipse cx="292" cy="448" rx="26" ry="10" fill="#5C6470" opacity="0.5"/>
</svg>